<svg version="1.1" xmlns="http://www.w3.org/2000/svg" xmlns:xlink="http://www.w3.org/1999/xlink" xmlns:a="http://ns.adobe.com/AdobeSVGViewerExtensions/3.0/" x="0px" y="0px" width="307.877px" height="282.068px" viewBox="0 0 307.877 282.068" enable-background="new 0 0 307.877 282.068" xml:space="preserve"><defs></defs><g id="Logo_1_"><g id="Typography_1_"><g id="R_2_"><path id="R_3_" fill="#e83a59" d="M30.927,220.069l-0.658-0.658c-0.146-0.146-0.292-0.219-0.512-0.219h-0.439h-0.146				c-6.288,0-11.406,1.755-17.181,5.922c-1.17,0.804-2.34,1.828-3.363,2.851v-4.825c0-2.413-1.901-4.314-4.314-4.314				S0,220.727,0,223.139v54.615c0,2.413,1.901,4.314,4.314,4.314c2.34,0,4.314-1.901,4.314-4.314L8.7,248.509				c0-11.113,8.92-20.398,19.74-20.691c0.146,0,0.585,0,0.731,0h0.073h1.097l0,0c0.219,0,0.366-0.073,0.512-0.219				c0.146-0.146,0.219-0.292,0.219-0.512v-6.507C31.146,220.361,31.073,220.215,30.927,220.069z M29.318,219.922				c-0.219,0-0.439,0-0.731,0c0.219,0,0.366,0,0.585,0C29.245,219.922,29.318,219.922,29.318,219.922z M13.526,224.967				c-0.366,0.219-0.731,0.512-1.024,0.731C12.795,225.406,13.16,225.186,13.526,224.967z M28.148,219.922c-0.219,0-0.439,0-0.585,0				C27.71,219.922,27.929,219.922,28.148,219.922z M27.052,219.995c-0.219,0-0.439,0-0.585,0.073				C26.613,219.995,26.832,219.995,27.052,219.995z M25.955,220.069c-0.219,0-0.439,0.073-0.585,0.073				C25.516,220.142,25.736,220.069,25.955,220.069z M24.858,220.215c-0.219,0-0.366,0.073-0.585,0.073				C24.42,220.288,24.639,220.288,24.858,220.215z M23.762,220.434c-0.219,0.073-0.366,0.073-0.585,0.146				C23.396,220.507,23.615,220.434,23.762,220.434z M22.738,220.653c-0.219,0.073-0.366,0.073-0.585,0.146				C22.372,220.727,22.519,220.727,22.738,220.653z M21.714,220.946c-0.219,0.073-0.366,0.146-0.585,0.219				C21.349,221.019,21.495,221.019,21.714,220.946z M20.691,221.238c-0.219,0.073-0.366,0.146-0.585,0.219				C20.252,221.385,20.472,221.311,20.691,221.238z M19.667,221.604c-0.219,0.073-0.439,0.146-0.585,0.219				C19.229,221.823,19.448,221.677,19.667,221.604z M18.644,222.043c-0.219,0.073-0.439,0.219-0.658,0.292				C18.205,222.262,18.424,222.116,18.644,222.043z M17.62,222.554c-0.219,0.073-0.439,0.219-0.658,0.366				C17.181,222.774,17.401,222.627,17.62,222.554z M16.597,223.066c-0.219,0.146-0.439,0.219-0.658,0.366				C16.158,223.285,16.377,223.139,16.597,223.066z M15.573,223.651c-0.219,0.146-0.439,0.292-0.658,0.439				C15.134,223.87,15.354,223.724,15.573,223.651z M14.549,224.236c-0.292,0.146-0.512,0.366-0.804,0.512				C14.038,224.601,14.33,224.382,14.549,224.236z M28.514,227.087c0.073,0,0.073,0,0.146,0				C28.587,227.087,28.514,227.087,28.514,227.087z M29.245,227.087c-0.073,0-0.219,0-0.366,0c0.219,0,0.439,0,0.439,0				S29.318,227.087,29.245,227.087z M28.66,227.087c0.073,0,0.146,0,0.219,0C28.806,227.087,28.733,227.087,28.66,227.087z"></path></g><g id="minds_1_"><path id="S_1_" fill="#2F2E43" d="M300.931,249.971c-3.729-2.778-8.773-4.533-13.891-4.752				c-4.387-0.219-11.698-1.682-11.698-8.993c0-6.141,5.41-9.432,10.455-9.505c3.436,0.146,6.215,1.17,8.7,2.998				c0.731,0.512,1.535,0.804,2.413,0.804c0.292,0,0.585,0,0.877-0.073c1.17-0.219,2.12-0.95,2.705-1.974				c1.024-1.755,0.512-4.021-1.097-5.264c-3.656-2.778-8.92-4.46-13.672-4.46c-10.309,0-18.424,7.677-18.424,17.474				c0,6.068,2.778,10.674,8.262,13.599c4.314,2.266,9.358,2.998,12.795,3.217c1.17,0.073,11.479,0.95,11.479,10.309				c0,6.361-4.46,10.674-11.04,10.748c-6.068-0.073-10.309-1.462-14.403-4.679c-0.658-0.512-1.535-0.804-2.413-0.804				c-0.219,0-0.512,0-0.731,0.073c-1.097,0.219-2.047,0.877-2.632,1.828c-0.95,1.535-0.658,3.509,0.658,4.752				c4.314,4.094,11.771,6.58,19.448,6.58c10.748,0,19.155-8.115,19.155-18.571C307.877,257.941,305.464,253.335,300.931,249.971z				 M274.757,234.983c0.658-5.849,6.068-8.993,11.113-8.993C280.825,225.991,275.415,229.134,274.757,234.983z M295.009,229.134				c0.146,0.146,0.366,0.219,0.585,0.292C295.374,229.427,295.228,229.281,295.009,229.134z M295.74,229.573				c0.146,0.073,0.292,0.073,0.439,0.146C296.032,229.646,295.886,229.646,295.74,229.573z M296.398,229.719				c0.219,0.073,0.366,0.073,0.585,0.073C296.764,229.792,296.544,229.792,296.398,229.719z M296.983,229.792				c0.146,0,0.366,0,0.512-0.073C297.348,229.792,297.202,229.792,296.983,229.792C297.056,229.792,296.983,229.792,296.983,229.792				z M299.542,224.163c-0.146-0.146-0.292-0.292-0.439-0.439c-2.047-1.535-4.606-2.705-7.238-3.436				c2.705,0.731,5.191,1.901,7.238,3.436C299.249,223.87,299.396,224.017,299.542,224.163z M273.952,269.931				c-0.146-0.146-0.366-0.219-0.512-0.292C273.587,269.712,273.806,269.858,273.952,269.931z M273.221,269.566				c-0.146-0.073-0.292-0.073-0.439-0.146C273.002,269.419,273.148,269.493,273.221,269.566z M272.636,269.346				c-0.146,0-0.292-0.073-0.439-0.073C272.344,269.273,272.49,269.346,272.636,269.346z M272.051,269.273				c-0.219,0-0.439,0-0.585,0.073C271.613,269.273,271.832,269.273,272.051,269.273				C271.978,269.273,272.051,269.273,272.051,269.273z M268.908,271.832c0,0.146-0.073,0.366-0.073,0.512				C268.835,272.198,268.835,271.978,268.908,271.832z"></path><path id="N_1_" fill="#2F2E43" d="M194.991,248.363c0-0.731,0-1.243,0-1.608l0,0v-0.073l0,0				c-0.366-4.752-1.828-9.358-4.241-13.453c-5.191-9.066-14.111-14.403-23.835-14.403h-0.073h-0.073				c-9.724,0-18.644,5.41-23.835,14.403c-2.413,4.094-3.875,8.774-4.314,13.526l0,0v0.073l0,0c0,0.366,0,0.731,0,1.316				c-0.073,2.924-0.146,9.724,0.073,30.049c0,2.12,1.755,3.875,3.948,3.875h0.073c2.193,0,3.948-1.755,4.021-3.948l0.073-29.245				c0-8.042,4.241-15.5,10.967-19.448c2.998-1.755,6.068-2.632,8.993-2.632l0,0c0.073,0,0.073,0,0.146,0h0.073				c2.924,0,5.995,0.95,8.993,2.632c6.726,3.948,10.967,11.406,10.967,19.521l0.366,29.026c0,2.193,1.828,3.948,3.948,3.948				c2.193,0,3.948-1.755,3.948-3.948C195.137,258.233,195.064,251.288,194.991,248.363L194.991,248.363z M190.019,233.448				c1.462,2.486,2.632,5.191,3.29,8.042C192.651,238.712,191.555,236.007,190.019,233.448c-2.047-3.509-4.606-6.434-7.604-8.7				C185.413,227.087,188.045,230.012,190.019,233.448z M166.623,225.918c0.073,0,0.073,0,0.146,0				C166.77,225.918,166.77,225.918,166.623,225.918C166.696,225.918,166.696,225.918,166.623,225.918z M176.201,228.623				c3.509,2.047,6.288,4.972,8.262,8.481C182.489,233.667,179.637,230.67,176.201,228.623z"></path><path id="D_1_" fill="#2F2E43" d="M256.844,188.996c-2.266,0-4.167,1.828-4.167,4.167v36.922l-2.924-2.486				c-5.483-4.46-11.917-6.799-18.717-6.799c-7.896,0-15.354,3.217-20.983,8.993s-8.7,13.453-8.7,21.495				c0,8.115,3.071,15.719,8.7,21.495c5.63,5.776,13.087,8.993,20.983,8.993c6.726,0,13.233-2.34,18.717-6.799l2.924-2.486v5.118				c0,2.266,1.828,4.167,4.167,4.167c2.266,0,4.167-1.828,4.167-4.167v-84.445C260.938,190.897,259.111,188.996,256.844,188.996z				 M231.035,273.806L231.035,273.806c9.285,0,17.401-5.557,20.691-14.111c0.877-2.34,1.316-4.899,1.316-7.604v-1.462				c0-2.559-0.439-5.118-1.243-7.384c0.804,2.266,1.243,4.825,1.243,7.384v1.389c0,2.705-0.439,5.264-1.316,7.604				C248.436,268.25,240.321,273.806,231.035,273.806z M209.833,251.288c0-12.21,9.066-21.422,21.203-21.422				c8.335,0,15.719,4.387,19.229,11.479c1.389,2.778,2.12,5.922,2.12,9.285v1.389c0,2.632-0.439,5.118-1.316,7.384				c-3.144,8.262-10.967,13.599-19.96,13.599C219.191,273.075,209.833,263.497,209.833,251.288z M231.035,229.208L231.035,229.208				c4.021,0,7.75,1.024,11.04,2.778C238.785,230.158,235.057,229.208,231.035,229.208z M246.17,225.918				c0.731,0.439,1.389,0.95,2.12,1.462C247.559,226.868,246.901,226.356,246.17,225.918c-3.217-1.974-6.653-3.363-10.236-4.021				C239.516,222.554,242.953,223.943,246.17,225.918z M231.035,221.531L231.035,221.531c-6.726,0-13.16,2.413-18.278,6.799				C217.875,223.943,224.309,221.531,231.035,221.531z M212.757,274.318c5.191,4.387,11.552,6.799,18.278,6.799l0,0				C224.309,281.117,217.875,278.705,212.757,274.318z"></path><g id="i_2_"><path id="i_3_" fill="#2F2E43" d="M127.801,218.679c-2.34,0-4.167,1.901-4.167,4.167v54.834c0,2.34,1.901,4.167,4.167,4.167					c2.34,0,4.167-1.901,4.167-4.167V222.92C132.041,220.58,130.14,218.679,127.801,218.679z"></path><path id="Point_1_" fill="#e83a59" d="M128.166,193.529c-3.071,0-5.849,2.559-5.849,5.849c0,3.071,2.778,5.63,5.849,5.63					c3.29,0,5.849-2.559,5.849-5.63C134.015,196.088,131.529,193.529,128.166,193.529L128.166,193.529z"></path></g><path id="M_1_" fill="#2F2E43" d="M117.346,248.144c-0.658-7.677-3.948-14.915-9.212-20.398				c-5.483-5.776-12.722-8.92-20.252-8.92c-9.578,0-18.059,4.606-23.908,13.014l-1.682,2.486l-1.682-2.413				c-5.045-7.384-12.429-11.917-20.837-12.868l-1.243-0.146h-0.073c-0.146,0-0.366,0.073-0.512,0.219				c-0.146,0.146-0.219,0.366-0.219,0.512v7.165c0,0.366,0.292,0.658,0.658,0.731l0.95,0.146c4.094,0.512,7.896,2.12,11.04,4.825				c4.899,4.094,7.677,10.309,7.677,16.889l-0.073,28.148c0,1.097,0.439,2.193,1.243,2.998c0.804,0.804,1.828,1.243,2.998,1.243				c2.34,0,4.167-1.901,4.167-4.167l0.073-28.002c0-6.58,2.778-12.722,7.604-16.889c3.948-3.363,8.7-5.191,13.818-5.191				c3.363,0,6.799,0.95,10.016,2.851c6.946,4.021,11.186,11.625,11.186,19.887l-0.073,27.563c0,1.097,0.439,2.047,1.17,2.851				c0.731,0.731,1.755,1.17,2.851,1.17h0.366c2.193,0,3.948-1.755,3.948-3.948C117.492,252.165,117.492,250.191,117.346,248.144				L117.346,248.144z M116.614,248.217c-0.585-6.58-3.144-12.795-7.165-17.839C113.544,235.349,116.03,241.637,116.614,248.217z				 M107.622,228.257c-4.679-4.899-10.674-7.896-16.962-8.554C96.947,220.361,102.942,223.359,107.622,228.257z"></path></g></g><g id="Symbol_1_"><path id="Right_1_" fill="#e83a59" d="M264.448,102.138c-2.924,0-5.264-2.34-5.264-5.264V26.32c0-2.924,2.34-5.264,5.264-5.264			s5.264,2.34,5.264,5.264v70.554C269.712,99.725,267.372,102.138,264.448,102.138L264.448,102.138z M248.655,112.666			c-2.924,0-5.264-2.34-5.264-5.264V31.585c0-2.924,2.34-5.264,5.264-5.264c2.924,0,5.264,2.34,5.264,5.264v75.818			C253.92,110.254,251.58,112.666,248.655,112.666L248.655,112.666z M217.071,133.723c-2.924,0-5.264-2.34-5.264-5.264V42.113			c0-2.924,2.34-5.264,5.264-5.264c2.924,0,5.264,2.34,5.264,5.264v86.346C222.335,131.31,219.995,133.723,217.071,133.723			L217.071,133.723z M185.486,149.515c-2.924,0-5.264-2.34-5.264-5.264v-91.61c0-2.924,2.34-5.264,5.264-5.264			s5.264,2.34,5.264,5.264v91.61C190.75,147.102,188.411,149.515,185.486,149.515L185.486,149.515z M232.863,123.195			c-2.924,0-5.264-2.34-5.264-5.264V36.849c0-2.924,2.34-5.264,5.264-5.264s5.264,2.34,5.264,5.264v81.082			C238.127,120.782,235.788,123.195,232.863,123.195L232.863,123.195z M201.279,144.251c-2.924,0-5.264-2.34-5.264-5.264v-91.61			c0-2.924,2.34-5.264,5.264-5.264s5.264,2.34,5.264,5.264v91.61C206.543,141.838,204.203,144.251,201.279,144.251L201.279,144.251z			 M169.694,154.779c-2.924,0-5.264-2.34-5.264-5.264v-91.61c0-2.924,2.34-5.264,5.264-5.264s5.264,2.34,5.264,5.264v91.61			C174.958,152.366,172.619,154.779,169.694,154.779L169.694,154.779z"></path><path id="Left_1_" fill="#2F2E43" d="M122.317,128.459c-2.924,0-5.264-2.34-5.264-5.264V47.377c0-2.924,2.34-5.264,5.264-5.264			c2.924,0,5.264,2.34,5.264,5.264v75.818C127.581,126.046,125.242,128.459,122.317,128.459L122.317,128.459z M90.733,117.93			c-2.924,0-5.264-2.34-5.264-5.264V26.32c0-2.924,2.34-5.264,5.264-5.264s5.264,2.34,5.264,5.264v86.346			C95.997,115.518,93.657,117.93,90.733,117.93L90.733,117.93z M59.148,107.402c-2.924,0-5.264-2.34-5.264-5.264v-91.61			c0-2.924,2.34-5.264,5.264-5.264c2.924,0,5.264,2.34,5.264,5.264v91.61C64.412,104.989,62.072,107.402,59.148,107.402			L59.148,107.402z M153.902,138.987c-2.924,0-5.264-2.34-5.264-5.264V63.169c0-2.924,2.34-5.264,5.264-5.264			s5.264,2.34,5.264,5.264v70.554C159.166,136.574,156.826,138.987,153.902,138.987L153.902,138.987z M138.109,133.723			c-2.924,0-5.264-2.34-5.264-5.264V57.905c0-2.924,2.34-5.264,5.264-5.264s5.264,2.34,5.264,5.264v70.554			C143.374,131.31,141.034,133.723,138.109,133.723L138.109,133.723z M106.525,123.195c-2.924,0-5.264-2.34-5.264-5.264V36.849			c0-2.924,2.34-5.264,5.264-5.264c2.924,0,5.264,2.34,5.264,5.264v81.082C111.789,120.782,109.449,123.195,106.525,123.195			L106.525,123.195z M74.94,112.666c-2.924,0-5.264-2.34-5.264-5.264v-91.61c0-2.924,2.34-5.264,5.264-5.264s5.264,2.34,5.264,5.264			v91.61C80.204,110.254,77.865,112.666,74.94,112.666L74.94,112.666z M43.356,102.138c-2.924,0-5.264-2.34-5.264-5.264V5.264			C38.092,2.34,40.431,0,43.356,0s5.264,2.34,5.264,5.264v91.61C48.62,99.725,46.28,102.138,43.356,102.138L43.356,102.138z"></path></g></g></svg>